<?xml version="1.0" encoding="UTF-8" standalone="no"?>
<!-- Created with Inkscape (http://www.inkscape.org/) -->

<svg
   width="512"
   height="512"
   viewBox="0 0 512 512"
   version="1.1"
   id="svg5"
   xml:space="preserve"
   inkscape:version="1.3 (0e150ed6c4, 2023-07-21)"
   sodipodi:docname="logo.svg"
   inkscape:export-filename="logo.png"
   inkscape:export-xdpi="90"
   inkscape:export-ydpi="90"
   xmlns:inkscape="http://www.inkscape.org/namespaces/inkscape"
   xmlns:sodipodi="http://sodipodi.sourceforge.net/DTD/sodipodi-0.dtd"
   xmlns="http://www.w3.org/2000/svg"
   xmlns:svg="http://www.w3.org/2000/svg"><sodipodi:namedview
     id="namedview7"
     pagecolor="#ffffff"
     bordercolor="#000000"
     borderopacity="0.25"
     inkscape:showpageshadow="2"
     inkscape:pageopacity="0.0"
     inkscape:pagecheckerboard="0"
     inkscape:deskcolor="#d1d1d1"
     inkscape:document-units="px"
     showgrid="false"
     inkscape:zoom="0.94257886"
     inkscape:cx="266.29072"
     inkscape:cy="265.2298"
     inkscape:window-width="1728"
     inkscape:window-height="992"
     inkscape:window-x="-8"
     inkscape:window-y="-8"
     inkscape:window-maximized="1"
     inkscape:current-layer="g24918"><inkscape:grid
       type="xygrid"
       id="grid5182"
       originx="0"
       originy="0"
       spacingy="1"
       spacingx="1"
       units="px"
       visible="false" /></sodipodi:namedview><defs
     id="defs2" /><g
     inkscape:label="Layer 1"
     inkscape:groupmode="layer"
     id="layer1"><g
       id="g5330"
       style="display:none"><path
         style="fill:none;stroke:#000000;stroke-width:4;stroke-dasharray:16, 4;stroke-dashoffset:0;stroke-opacity:1"
         d="m 314.05549,169.99759 v 97.58263 l -97.11942,47.09289"
         id="path1266"
         sodipodi:nodetypes="ccc" /><path
         style="fill:none;stroke:#000000;stroke-width:4;stroke-dasharray:16, 4;stroke-dashoffset:0;stroke-opacity:1"
         d="m 217.70808,266.345 96.34741,1.23522"
         id="path3698"
         sodipodi:nodetypes="cc" /></g><path
       style="fill:#ffdd55;fill-opacity:1;stroke:none;stroke-width:1.31015;stroke-dasharray:none;stroke-dashoffset:0;stroke-opacity:1"
       d=""
       id="path6287" /><g
       aria-label="easyunfold"
       id="text12029"
       style="font-size:40px;font-family:'Comic Sans MS';-inkscape-font-specification:'Comic Sans MS';fill:#7b55ca;stroke-width:3"><g
         id="g24918"
         transform="matrix(1.730283,0,0,1.730283,-201.23961,-161.83933)"><rect
           style="fill:#ffffff;stroke:#000000;stroke-width:5;stroke-dasharray:none;stroke-opacity:1"
           id="rect1015"
           width="145.13873"
           height="144.5211"
           x="167.37274"
           y="121.05186" /><path
           style="fill:none;fill-opacity:1;stroke:#000000;stroke-width:3;stroke-dasharray:none;stroke-dashoffset:0;stroke-opacity:1"
           d="m 168.14869,205.00101 c 0,0 27.46864,-16.90195 40.92601,-17.62277 35.68051,0.18195 35.55523,-9.54805 65.51996,-8.11481 22.36406,1.22248 37.98311,16.67551 37.98311,16.67551"
           id="path5211-5"
           sodipodi:nodetypes="cccc" /><rect
           style="fill:#ffffff;stroke:#000000;stroke-width:5.29256;stroke-dasharray:none;stroke-opacity:1"
           id="rect1015-7-5"
           width="107.26023"
           height="144.25555"
           x="244.62251"
           y="280.41495"
           transform="matrix(0.8925004,-0.45104661,0,1,0,0)"
           ry="0" /><g
           id="g2556"
           style="fill:none;fill-opacity:1;stroke:#000000;stroke-width:3;stroke-dasharray:none;stroke-opacity:1"><path
             style="fill:none;fill-opacity:1;stroke:#000000;stroke-width:3;stroke-dasharray:none;stroke-dashoffset:0;stroke-opacity:1"
             d="m 305.04706,126.42967 -19.87064,44.10845"
             id="path1510" /><path
             style="fill:none;fill-opacity:1;stroke:#000000;stroke-width:3;stroke-dasharray:none;stroke-dashoffset:0;stroke-opacity:1"
             d="M 312.79879,121.84414 290.5262,170.53812"
             id="path1510-4"
             sodipodi:nodetypes="cc" /><path
             style="fill:none;fill-opacity:1;stroke:#000000;stroke-width:3;stroke-dasharray:none;stroke-dashoffset:0;stroke-opacity:1"
             d="m 313.45387,131.67028 -17.03198,38.86784"
             id="path1510-4-0"
             sodipodi:nodetypes="cc" /><path
             style="fill:none;fill-opacity:1;stroke:#000000;stroke-width:3;stroke-dasharray:none;stroke-dashoffset:0;stroke-opacity:1"
             d="m 314.10895,142.36985 -13.53824,30.78857"
             id="path2523"
             sodipodi:nodetypes="cc" /><path
             style="fill:none;fill-opacity:1;stroke:#000000;stroke-width:3;stroke-dasharray:none;stroke-dashoffset:0;stroke-opacity:1"
             d="m 313.89059,155.68973 -6.98748,16.3769"
             id="path2525"
             sodipodi:nodetypes="cc" /><path
             style="fill:none;fill-opacity:1;stroke:#000000;stroke-width:3;stroke-dasharray:none;stroke-dashoffset:0;stroke-opacity:1"
             d="M 296.20354,131.23356 279.17156,170.1014"
             id="path2527"
             sodipodi:nodetypes="cc" /><path
             style="fill:none;fill-opacity:1;stroke:#000000;stroke-width:3;stroke-dasharray:none;stroke-dashoffset:0;stroke-opacity:1"
             d="m 287.03248,135.16402 -15.50347,36.24754"
             id="path2529"
             sodipodi:nodetypes="cc" /><path
             style="fill:none;fill-opacity:1;stroke:#000000;stroke-width:3;stroke-dasharray:none;stroke-dashoffset:0;stroke-opacity:1"
             d="M 276.76963,140.84135 262.79467,174.9053"
             id="path2531"
             sodipodi:nodetypes="cc" /><path
             style="fill:none;fill-opacity:1;stroke:#000000;stroke-width:3;stroke-dasharray:none;stroke-dashoffset:0;stroke-opacity:1"
             d="m 268.90871,144.11673 -11.79137,27.29483"
             id="path2533"
             sodipodi:nodetypes="cc" /><path
             style="fill:none;fill-opacity:1;stroke:#000000;stroke-width:3;stroke-dasharray:none;stroke-dashoffset:0;stroke-opacity:1"
             d="m 260.61108,147.82883 -9.82614,23.36437"
             id="path2535"
             sodipodi:nodetypes="cc" /><path
             style="fill:none;fill-opacity:1;stroke:#000000;stroke-width:3;stroke-dasharray:none;stroke-dashoffset:0;stroke-opacity:1"
             d="m 251.44002,152.85108 -7.20584,17.46869"
             id="path2537"
             sodipodi:nodetypes="cc" /><path
             style="fill:none;fill-opacity:1;stroke:#000000;stroke-width:3;stroke-dasharray:none;stroke-dashoffset:0;stroke-opacity:1"
             d="m 241.83224,158.96512 -5.67732,13.7566"
             id="path2539"
             sodipodi:nodetypes="cc" /><path
             style="fill:none;fill-opacity:1;stroke:#000000;stroke-width:3;stroke-dasharray:none;stroke-dashoffset:0;stroke-opacity:1"
             d="m 232.0061,162.67722 -3.49374,7.64255"
             id="path2541"
             sodipodi:nodetypes="cc" /></g><rect
           style="display:inline;fill:#ffffff;stroke:#000000;stroke-width:5;stroke-dasharray:none;stroke-opacity:1"
           id="rect1015-7"
           width="145.13873"
           height="144.5211"
           x="217.09045"
           y="170.4608" /><path
           style="fill:none;fill-opacity:1;stroke:#000000;stroke-width:3;stroke-dasharray:none;stroke-dashoffset:0;stroke-opacity:1"
           d="m 217.39928,216.78166 c 0,0 20.51126,22.64604 33.96863,21.92522 11.76686,-0.63027 15.72083,-21.53349 27.48372,-22.23402 14.59503,-0.8692 28.81496,41.8303 45.39445,41.07117 20.51123,-0.93916 35.51267,-35.51267 35.51267,-35.51267 m -82.45115,0"
           id="path5211"
           sodipodi:nodetypes="csssc" /><path
           style="fill:#7b55ca;fill-opacity:1;stroke:#7b55ca;stroke-width:1.85283;stroke-dasharray:none;stroke-dashoffset:0;stroke-opacity:1"
           d="m 318.61703,253.90791 c -4.14954,-2.43248 -8.41321,-7.229 -16.9464,-19.06425 -7.92334,-10.98941 -14.64602,-18.12862 -18.16431,-19.28976 -1.27747,-0.4216 -3.76514,-0.64693 -5.52816,-0.50072 -4.69954,0.38972 -7.84464,2.87619 -14.43835,11.41478 -3.09964,4.01391 -6.64462,7.97606 -7.87773,8.80477 -5.98735,4.0238 -16.26976,-0.52369 -30.61491,-13.53973 l -4.86864,-4.41755 v -21.8833 -21.8833 h 69.4813 69.4813 v 23.77805 c 0,13.25158 0.13485,24.15314 -0.16759,24.15314 -0.29847,0 -1.2657,0.46487 -1.69094,1.49149 -1.52565,3.68326 -7.47274,13.17332 -11.43551,18.24823 -6.79031,8.69597 -13.97834,13.61101 -20.82716,14.24123 -2.79659,0.25733 -3.68018,0.043 -6.4029,-1.55308 z"
           id="path5502"
           sodipodi:nodetypes="ssssssscccccssssss" /><path
           style="fill:#57c5b6;fill-opacity:1;stroke:#57c5b7;stroke-width:1.85283;stroke-dasharray:none;stroke-dashoffset:0;stroke-opacity:1"
           d="m 220.17853,267.06698 v -44.82687 l 4.47768,4.10998 c 5.63826,5.17524 14.11787,10.90461 18.64722,12.59925 4.49156,1.68051 10.06379,1.73009 13.18438,0.11731 2.79823,-1.44618 6.15935,-4.93622 11.11702,-11.54342 4.41526,-5.88434 6.75937,-7.9972 9.80563,-8.83832 5.01256,-1.38403 9.54688,2.57452 21.21462,18.52077 12.16497,16.6258 17.29649,21.28801 24.20225,21.98881 4.02495,0.40845 9.73462,-1.36763 14.4425,-4.49254 6.33455,-4.20463 14.73027,-14.20226 20.09152,-23.925 l 2.1325,-3.37463 -0.36389,42.33954 0.0112,42.15199 h -69.4813 -69.4813 z"
           id="path5577"
           sodipodi:nodetypes="ccssssssssscccccc" /><path
           style="fill:#7149c6;fill-opacity:0.733333;stroke:#7149c6;stroke-width:0.327538;stroke-dasharray:none;stroke-dashoffset:0;stroke-opacity:1"
           d="m 308.0899,159.94526 3.50792,-7.97946 0.0292,2.49073 0.0292,2.49074 -2.33129,5.45798 -2.3313,5.45798 -1.20586,0.0307 -1.20587,0.0308 z"
           id="path6291" /><path
           style="fill:#000022;fill-opacity:0.733333;stroke:none;stroke-width:0.327538;stroke-dasharray:none;stroke-dashoffset:0;stroke-opacity:1"
           d="m 310.45144,167.81832 c 0,-0.108 1.07369,-2.64828 1.15275,-2.72734 0.0265,-0.0265 0.0482,0.59867 0.0482,1.38931 v 1.43753 h -0.60049 c -0.33026,0 -0.60048,-0.0448 -0.60048,-0.0995 z"
           id="path6293" /><path
           style="fill:#7149c6;fill-opacity:0.733333;stroke:#7149c6;stroke-width:0.327538;stroke-dasharray:none;stroke-dashoffset:0;stroke-opacity:1"
           d="m 299.34314,167.78579 c 0.0301,-0.0775 2.79975,-6.40509 6.15472,-14.06129 l 6.09996,-13.92036 0.0295,2.12954 0.0295,2.12955 -5.23346,11.9 -5.23347,11.9 -0.95077,0.0317 c -0.74169,0.0248 -0.93873,7.6e-4 -0.89601,-0.10918 z"
           id="path6295" /><path
           style="fill:#7149c6;fill-opacity:0.733333;stroke:#7149c6;stroke-width:0.327538;stroke-dasharray:none;stroke-dashoffset:0;stroke-opacity:1"
           d="m 298.95197,155.88079 c 3.0283,-6.62036 7.11247,-15.54944 9.07593,-19.84241 l 3.56992,-7.80539 0.0299,1.82114 0.0299,1.82114 -7.89082,18.01934 -7.89081,18.01934 -1.21502,0.002 -1.21503,0.002 z"
           id="path6297" /><path
           style="fill:#7149c6;fill-opacity:0.733333;stroke:#7149c6;stroke-width:0.327538;stroke-dasharray:none;stroke-dashoffset:0;stroke-opacity:1"
           d="m 288.33574,167.34462 c 0.30725,-0.69321 17.11791,-38.0001 17.32192,-38.44149 0.11161,-0.24148 0.45778,-0.46806 1.55548,-1.01812 0.77655,-0.38913 1.3862,-0.6424 1.35477,-0.56283 -0.0314,0.0796 -4.22091,9.24616 -9.30995,20.37016 l -9.25281,20.22548 h -0.96173 -0.96173 z"
           id="path6299" /><path
           style="fill:#7149c6;fill-opacity:0.733333;stroke:#7149c6;stroke-width:0.327538;stroke-dasharray:none;stroke-dashoffset:0;stroke-opacity:1"
           d="m 281.94869,167.67216 c 0.0532,-0.13511 3.486,-7.98374 7.62832,-17.4414 l 7.5315,-17.19574 2.05652,-1.05752 c 1.13108,-0.58164 2.07,-1.04404 2.08647,-1.02756 0.0165,0.0165 -3.71394,8.34099 -8.28983,18.49892 l -8.31981,18.46896 h -1.395 -1.395 z"
           id="path6301" /><path
           style="fill:#7149c6;fill-opacity:0.733333;stroke:#7149c6;stroke-width:0.327538;stroke-dasharray:none;stroke-dashoffset:0;stroke-opacity:1"
           d="m 274.74986,167.89052 c 4e-5,-0.015 2.8883,-6.78276 6.41835,-15.03945 l 6.41829,-15.01216 2.49031,-1.2905 c 1.36967,-0.70978 2.51632,-1.2645 2.5481,-1.23272 0.0318,0.0318 -3.15082,7.38026 -7.07246,16.32996 l -7.13026,16.27217 h -1.8362 c -1.00991,0 -1.83617,-0.0123 -1.83613,-0.0273 z"
           id="path6303" /><path
           style="fill:#7149c6;fill-opacity:0.733333;stroke:#7149c6;stroke-width:0.327538;stroke-dasharray:none;stroke-dashoffset:0;stroke-opacity:1"
           d="m 268.9546,164.01465 c 0.88145,-2.14673 3.19551,-7.78677 5.14237,-12.53341 l 3.53975,-8.63026 2.71462,-1.39587 c 1.49304,-0.76773 2.74163,-1.36887 2.77464,-1.33586 0.033,0.033 -2.60868,6.30119 -5.87044,13.92929 l -5.93045,13.86928 h -1.98656 -1.98655 z"
           id="path6307" /><path
           style="fill:#7149c6;fill-opacity:0.733333;stroke:#7149c6;stroke-width:0.327538;stroke-dasharray:none;stroke-dashoffset:0;stroke-opacity:1"
           d="m 260.39813,167.77931 c 0.0303,-0.0791 2.05835,-4.78023 4.50669,-10.44702 l 4.45153,-10.30326 1.98706,-1.02884 c 1.09288,-0.56585 1.98502,-0.98775 1.98253,-0.93755 -0.002,0.0502 -2.1031,5.20088 -4.66803,11.44594 l -4.6635,11.35465 -1.82572,0.0299 c -1.47422,0.0242 -1.81511,0.002 -1.77056,-0.11384 z"
           id="path6309" /><path
           style="fill:#7149c6;fill-opacity:0.733333;stroke:#7149c6;stroke-width:0.327538;stroke-dasharray:none;stroke-dashoffset:0;stroke-opacity:1"
           d="m 253.89654,167.87502 c 0,-0.0235 1.56594,-3.76638 3.47987,-8.31743 l 3.47988,-8.27463 2.03368,-1.01797 c 1.11853,-0.55988 2.03368,-0.98375 2.03368,-0.94192 0,0.0418 -1.79992,4.24276 -3.99983,9.3354 l -3.99984,9.25935 h -1.51372 c -0.83255,0 -1.51372,-0.0193 -1.51372,-0.0428 z"
           id="path6311" /><path
           style="fill:#7149c6;fill-opacity:0.733333;stroke:#7149c6;stroke-width:0.327538;stroke-dasharray:none;stroke-dashoffset:0;stroke-opacity:1"
           d="m 247.67286,166.08906 c 0.41259,-1.00581 1.52893,-3.72028 2.48076,-6.03216 l 1.7306,-4.2034 2.21781,-1.12661 c 1.21979,-0.61964 2.24436,-1.10006 2.27682,-1.0676 0.0325,0.0325 -1.28429,3.25391 -2.92611,7.15877 l -2.98511,7.09976 h -1.77247 -1.77246 z"
           id="path6313" /><path
           style="fill:#7149c6;fill-opacity:0.733333;stroke:#7149c6;stroke-width:0.327538;stroke-dasharray:none;stroke-dashoffset:0;stroke-opacity:1"
           d="m 240.42449,166.47375 c 0.33156,-0.79705 1.02959,-2.49746 1.55118,-3.77868 l 0.94835,-2.32949 2.27727,-1.14335 c 1.25249,-0.62885 2.29583,-1.12479 2.31852,-1.1021 0.0227,0.0227 -0.85993,2.22416 -1.96136,4.89217 l -2.0026,4.85093 -1.8671,0.0299 -1.8671,0.0299 z"
           id="path6315" /><path
           style="fill:#7149c6;fill-opacity:0.733333;stroke:#7149c6;stroke-width:0.327538;stroke-dasharray:none;stroke-dashoffset:0;stroke-opacity:1"
           d="m 231.40486,167.83794 c -4e-4,-0.0461 0.20747,-0.54387 0.46195,-1.10606 l 0.46269,-1.02217 3.14985,-1.57565 c 2.2191,-1.11006 3.1311,-1.51777 3.08638,-1.37978 -0.0349,0.10773 -0.52088,1.30132 -1.07994,2.65241 l -1.01646,2.45654 -2.53187,0.0293 c -1.39252,0.0161 -2.53219,-0.008 -2.5326,-0.0546 z"
           id="path6317" /><path
           style="fill:#7b55ca;fill-opacity:1;stroke:#7b55ca;stroke-width:2.25055;stroke-dasharray:none;stroke-dashoffset:0;stroke-opacity:1"
           d="M 93.397802,119.65421 V 52.51282 l 115.340658,0.01584 115.34066,0.01584 -10.87765,5.653984 C 307.21875,61.308178 273.5851,78.348962 238.46,96.066895 195.01127,117.98346 173.84821,128.28132 172.25633,128.28132 h -2.33985 v 15.27597 15.27597 l -7.31428,0.51502 c -15.00596,1.0566 -32.77707,7.7518 -59.81134,22.53369 -4.94253,2.7025 -10.072527,6.30609 -9.18974,4.91363 0.05988,-0.0944 -0.203318,-30.21362 -0.203318,-67.14139 z"
           id="path25178"
           transform="matrix(0.57794014,0,0,0.57794014,116.30445,93.533445)"
           sodipodi:nodetypes="scccssscccssss" /><path
           style="fill:#57c5b6;fill-opacity:1;stroke:#57c5b6;stroke-width:2.25055;stroke-dasharray:none;stroke-dashoffset:0;stroke-opacity:1"
           d="m 93.397802,243.8109 v -49.51071 l 3.56337,-2.26051 c 1.959854,-1.24328 11.496558,-6.23146 21.192678,-11.08484 23.18881,-11.60714 36.06955,-15.89197 47.82417,-15.90888 l 3.93846,-0.006 v 64.14066 64.14066 H 131.65714 93.397802 Z"
           id="path25472"
           transform="matrix(0.57794014,0,0,0.57794014,116.30445,93.533445)" /><g
           id="g78"
           transform="translate(4.5032803,-50.066872)"><path
             style="font-size:39.1517px;fill:#146c94;fill-opacity:1;fill-rule:nonzero;stroke-width:0.594538"
             d="m 353.60624,388.27731 q -0.22941,2.81021 -0.22941,5.62041 0,6.36598 0.59263,9.61587 0.0382,0.26764 0.0382,0.43969 0,0.76469 -0.53528,1.26173 -0.53528,0.49704 -1.24261,0.49704 -1.18525,0 -1.73965,-1.72053 -1.37643,1.0132 -2.86755,1.52936 -1.47202,0.51616 -3.07785,0.51616 -3.95723,0 -6.55714,-2.63815 -2.67639,-2.6955 -2.67639,-6.92037 0,-5.10425 2.6955,-8.18209 2.71462,-3.07785 7.03507,-3.07785 2.21758,0 3.42195,0.68822 l 1.79701,1.31907 q 0.26764,-8.04827 0.63086,-10.83936 0.24852,-1.70141 1.73965,-1.70141 1.73965,0 1.73965,1.85435 0,2.65727 -0.76468,11.73786 z m -8.48797,0.49704 q -3.21166,0 -4.81749,1.91171 -1.60583,1.89259 -1.60583,5.71599 0,2.4661 1.73965,4.24399 1.75877,1.77788 4.11016,1.77788 1.60583,0 2.71462,-0.59263 0.64998,-0.3441 2.12199,-1.58671 0.28676,-0.24852 0.5544,-0.59263 l -0.0573,-3.30725 0.0191,-2.21757 0.0382,-2.25582 q -0.72645,-1.54848 -1.93082,-2.31316 -1.20438,-0.7838 -2.88668,-0.7838 z"
             id="path76" /><path
             style="font-size:39.1517px;fill:#146c94;fill-opacity:1;fill-rule:nonzero;stroke-width:0.594538"
             d="m 330.13052,390.13166 -0.28676,9.50117 q 0,1.51025 -0.15293,4.43516 -0.19117,1.9117 -1.87347,1.9117 -1.87347,0 -1.87347,-1.94994 0,-2.31316 0.21028,-6.93948 0.21029,-4.64544 0.21029,-6.95861 0,-3.02049 0.0956,-6.90125 0.0956,-3.89987 0.0956,-6.92037 0,-1.9117 1.87347,-1.9117 1.89259,0 1.89259,1.9117 0,3.0205 -0.0956,6.92037 -0.0956,3.88076 -0.0956,6.90125 z"
             id="path75" /><path
             style="font-size:39.1517px;fill:#146c94;fill-opacity:1;fill-rule:nonzero;stroke-width:0.594538"
             d="m 311.85463,406.28556 q -3.21166,0 -5.52483,-2.37051 -2.5808,-2.63815 -2.71462,-7.09242 -0.1147,-4.32045 2.17935,-7.60858 2.67638,-3.88076 7.45564,-3.88076 3.82341,0 5.79247,3.49842 1.56759,2.82932 1.51024,6.80566 -0.0573,4.24398 -2.21757,7.24536 -2.44699,3.40283 -6.48068,3.40283 z m 1.14702,-17.07151 q -2.8102,-0.0191 -4.3778,2.67638 -1.24261,2.16023 -1.24261,4.9322 0,2.77197 1.51025,4.32045 1.26172,1.28084 2.96314,1.28084 1.98817,0 3.42195,-1.45289 1.62495,-1.60584 1.72053,-4.33957 0.26764,-7.3983 -3.99546,-7.41741 z"
             id="path74" /><path
             style="font-size:39.1517px;fill:#146c94;fill-opacity:1;fill-rule:nonzero;stroke-width:0.594538"
             d="m 297.63154,378.2791 q -4.62632,0 -5.18072,6.42332 l -0.0574,1.18526 q 3.2499,-0.2294 4.20575,-0.2294 3.03961,0 3.03961,1.9117 0,1.39554 -1.49113,1.66318 -0.64998,0.11471 -1.52936,0.0956 -0.86027,-0.0382 -4.39692,0.24852 l -0.15294,4.35869 q 0,1.18525 0.0765,3.55576 0.0765,2.37052 0.0765,3.53666 0,3.63224 -0.42058,5.65864 -0.32499,1.52936 -1.77788,1.52936 -0.7838,0 -1.33819,-0.51616 -0.5544,-0.49704 -0.5544,-1.26172 0,-0.15294 0.0382,-0.38234 0.40145,-2.48522 0.40145,-5.41012 l -0.0573,-5.21896 v -5.54394 q -2.38963,0.19117 -3.02049,0.19117 -1.93082,0 -1.93082,-1.85435 0,-1.89259 3.34548,-1.98817 l 1.83524,-0.0574 q 0.0573,-1.07056 0.28675,-2.90579 0.49705,-4.24399 2.14111,-6.25128 1.98817,-2.42786 6.21304,-2.42786 2.73374,0 2.73374,1.85435 0,1.83524 -2.48522,1.83524 z"
             id="path73" /><path
             style="font-size:39.1517px;fill:#146c94;fill-opacity:1;fill-rule:nonzero;stroke-width:0.594538"
             d="m 278.9542,406.51497 q -1.64407,0 -1.85435,-1.797 l -0.53528,-4.18664 q -0.26764,-2.23669 -0.26764,-4.18663 0,-0.53527 0.0573,-1.81612 0.0765,-1.28084 0.0765,-1.81612 0,-4.12928 -1.52936,-4.12928 -2.14111,0 -4.09105,2.54257 -1.75877,2.31316 -2.75285,5.84981 -0.0382,0.74557 -0.17206,1.87347 -0.1147,0.95586 -0.1147,1.85436 0,0.57351 0.1147,1.72053 0.1147,1.14702 0.1147,1.72053 0,0.86027 -0.53527,1.39555 -0.51616,0.53528 -1.3382,0.53528 -0.84114,0 -1.35731,-0.53528 -0.51616,-0.53528 -0.51616,-1.39555 0,-0.57351 -0.13381,-1.72053 -0.11471,-1.14702 -0.11471,-1.72053 0,-1.96906 0.26764,-5.44836 0.28676,-3.49842 0.28676,-5.46747 0,-0.61175 -0.0765,-1.81612 -0.0573,-1.20437 -0.0573,-1.81612 0,-0.82203 0.53528,-1.33819 0.55439,-0.53528 1.35731,-0.53528 1.75876,0 1.93082,2.48522 l 0.0573,2.23669 q 3.21166,-4.28222 6.59538,-4.28222 3.05872,0 4.2631,2.6955 0.82203,1.79701 0.8985,5.31454 v 1.93082 l -0.0191,1.77789 q 0,1.58671 0.40146,4.11016 0.42057,2.50433 0.42057,4.07193 0,0.84115 -0.55439,1.35731 -0.53528,0.53528 -1.35731,0.53528 z"
             id="path72" /><path
             style="font-size:39.1517px;fill:#146c94;fill-opacity:1;fill-rule:nonzero;stroke-width:0.594538"
             d="m 259.53128,393.99331 q 0,1.37642 0.0191,4.12928 0.0191,2.75285 0.0191,4.12928 0,0.42057 0.0573,1.28084 0.0765,0.86027 0.0765,1.28084 0,0.82203 -0.5544,1.33819 -0.55439,0.53528 -1.35731,0.53528 -1.47201,0 -1.87347,-1.81612 -2.38963,1.24261 -5.5057,1.24261 -2.50434,0 -4.1484,-1.10879 -1.81612,-1.22349 -2.16023,-3.57488 -0.74556,-5.06602 -0.74556,-9.02325 0,-2.61903 0.57351,-5.96451 0.26764,-1.66319 1.81612,-1.66319 0.82203,0 1.37643,0.53528 0.55439,0.51616 0.55439,1.33819 0,0.87939 -0.28676,2.81021 -0.26763,1.93082 -0.26763,2.94402 0,3.19255 0.21028,5.46748 0.21029,2.27492 0.63086,3.65135 0.63087,0.34411 1.24261,0.53528 0.61175,0.17205 1.20438,0.17205 2.56168,0 5.41012,-0.82203 l -0.0191,-3.88076 -0.0382,-3.70871 q 0,-4.12928 0.36322,-7.16889 0.21029,-1.75876 1.85435,-1.75876 0.82204,0 1.37643,0.53527 0.5544,0.53528 0.51616,1.3382 z"
             id="path71" /><path
             style="font-size:39.1517px;fill:#19a7ce;fill-opacity:1;fill-rule:nonzero;stroke-width:0.594538"
             d="m 240.22307,388.10526 -6.61449,14.29954 q -2.44698,5.21896 -3.74694,8.73649 l -1.26173,3.70871 q -0.49704,1.37642 -1.72053,1.37642 -0.80292,0 -1.39554,-0.53527 -0.57352,-0.51616 -0.57352,-1.29996 0,-1.91171 4.12928,-11.06877 l -6.8439,-13.17164 -0.86026,-1.39554 q -0.51616,-0.87939 -0.51616,-1.47201 0,-0.7838 0.59263,-1.37643 0.61174,-0.59263 1.35731,-0.59263 0.87938,0 1.35731,0.6691 3.24989,4.51162 6.97772,12.84665 l 2.82932,-6.59538 q 1.52936,-3.42195 2.94402,-5.88805 0.61175,-1.07055 1.60583,-1.07055 0.7838,0 1.37643,0.55439 0.61175,0.55439 0.61175,1.31908 0,0.42057 -0.24853,0.95585 z"
             id="path70" /><path
             style="font-size:39.1517px;fill:#19a7ce;fill-opacity:1;fill-rule:nonzero;stroke-width:0.594538"
             d="m 217.39733,390.43754 q -1.05144,0 -1.47201,-0.70733 -0.28676,-0.49705 -0.49705,-2.06464 -1.43378,0.36322 -4.41603,1.33819 -3.07785,1.22349 -3.09696,3.02049 0.57351,0.21029 1.1279,0.30587 4.39692,0.7838 6.53803,2.16023 3.11608,2.00729 3.11608,5.81158 0,3.11608 -2.69551,4.70279 -2.23669,1.29996 -5.65864,1.29996 -2.50433,0 -4.77926,-0.84115 -2.94402,-1.07055 -2.94402,-2.98226 0,-0.76468 0.59262,-1.33819 0.61175,-0.57351 1.37643,-0.57351 0.59263,0 1.52936,0.91762 0.45881,0.43969 2.06464,0.72644 1.28085,0.22941 2.16023,0.22941 1.60583,0 2.82932,-0.38234 1.77789,-0.5544 1.77789,-1.75877 0,-2.59992 -3.63224,-3.51754 l -1.98817,-0.43969 q -2.54257,-0.55439 -3.61312,-1.29996 -1.54848,-1.07055 -1.54848,-3.23078 0,-3.99546 3.76605,-5.69687 1.14703,-0.51616 3.67047,-1.22349 2.52345,-0.72645 3.61313,-1.2235 0.78379,-0.3441 1.70141,-0.3441 0.82203,0 1.33819,0.53527 0.53528,0.53528 0.53528,1.39555 0,0.55439 0.22941,1.62495 0.24852,1.07055 0.24852,1.62495 0,0.86026 -0.53528,1.39554 -0.51616,0.53528 -1.33819,0.53528 z"
             id="path69" /><path
             style="font-size:39.1517px;fill:#19a7ce;fill-opacity:1;fill-rule:nonzero;stroke-width:0.594538"
             d="m 199.38908,406.41938 q -0.36323,0 -1.31908,-0.84115 -0.86027,-0.7838 -1.28084,-1.39554 -1.83524,0.99409 -3.23078,1.49113 -1.39555,0.51616 -2.33228,0.51616 -4.47339,0 -6.51891,-2.52345 -1.93082,-2.37051 -1.93082,-7.26448 0,-4.62632 3.17343,-7.91445 3.19254,-3.28813 7.60858,-3.28813 1.66318,0 3.72782,0.86026 2.59992,1.07056 2.59992,2.58081 0,0.51616 -0.38234,0.91761 -0.19117,0.72645 -0.30587,2.38963 -0.0956,1.66319 -0.11471,4.2631 -0.0191,2.37052 0.32499,3.74694 0.19117,0.84115 1.20438,3.3646 0.13382,0.34411 0.43969,1.01321 l 0.1147,0.32499 q 0,0.76468 -0.53528,1.26172 -0.53527,0.49704 -1.2426,0.49704 z m -3.97635,-13.28634 q 0,-0.82203 0.0956,-1.77789 0.1147,-0.97496 0.32499,-2.06464 -0.70733,-0.36322 -1.22349,-0.53527 -0.49705,-0.17206 -0.80292,-0.17206 -2.96314,0 -5.12337,2.42787 -2.14111,2.40875 -2.14111,5.56306 0,3.13519 1.10879,4.70279 1.10879,1.5676 3.32637,1.5676 1.83523,0 3.11608,-0.6691 0.68821,-0.36322 1.93082,-1.4529 -0.61175,-5.06601 -0.61175,-7.58946 z"
             id="path68" /><path
             style="font-size:39.1517px;fill:#19a7ce;fill-opacity:1;fill-rule:nonzero;stroke-width:0.594538"
             d="m 171.93701,406.03704 q -4.32046,0 -6.99684,-2.16022 -2.92491,-2.38963 -2.92491,-6.69097 0,-4.97043 2.40875,-8.33503 2.61903,-3.67047 6.99684,-3.67047 3.17342,0 5.18071,1.07055 2.4661,1.31908 2.4661,4.05282 0,1.9117 -2.16022,3.4793 -0.95586,0.68821 -4.05282,2.14111 l -7.30271,3.46018 q 1.07056,1.58672 2.65727,2.38963 1.60583,0.80292 3.72783,0.80292 1.31907,0 3.09696,-0.49705 2.25581,-0.63086 2.90579,-1.64406 0.64998,-1.03232 1.39554,-1.03232 0.6691,0 1.18526,0.51616 0.53527,0.49704 0.53527,1.16614 0,2.12199 -3.42195,3.65135 -2.9249,1.29996 -5.69687,1.29996 z m -0.51616,-17.41562 q -2.33228,0 -3.88076,1.81612 -1.54848,1.797 -2.31317,5.42924 l 5.86894,-2.79109 q 3.46018,-1.6823 4.93219,-2.92491 -1.64406,-1.52936 -4.6072,-1.52936 z"
             id="text1" /></g></g></g></g></svg>
