<?xml version="1.0" encoding="UTF-8" standalone="no"?>
<!-- Created with Inkscape (http://www.inkscape.org/) -->

<svg
   width="512"
   height="512"
   viewBox="0 0 512 512"
   version="1.1"
   id="svg5"
   xml:space="preserve"
   inkscape:version="1.2 (dc2aedaf03, 2022-05-15)"
   sodipodi:docname="logo.svg"
   inkscape:export-filename="logo.png"
   inkscape:export-xdpi="90"
   inkscape:export-ydpi="90"
   xmlns:inkscape="http://www.inkscape.org/namespaces/inkscape"
   xmlns:sodipodi="http://sodipodi.sourceforge.net/DTD/sodipodi-0.dtd"
   xmlns="http://www.w3.org/2000/svg"
   xmlns:svg="http://www.w3.org/2000/svg"><sodipodi:namedview
     id="namedview7"
     pagecolor="#ffffff"
     bordercolor="#000000"
     borderopacity="0.25"
     inkscape:showpageshadow="2"
     inkscape:pageopacity="0.0"
     inkscape:pagecheckerboard="0"
     inkscape:deskcolor="#d1d1d1"
     inkscape:document-units="px"
     showgrid="false"
     inkscape:zoom="2.6660156"
     inkscape:cx="264.25202"
     inkscape:cy="121.15458"
     inkscape:window-width="1920"
     inkscape:window-height="1009"
     inkscape:window-x="-8"
     inkscape:window-y="-8"
     inkscape:window-maximized="1"
     inkscape:current-layer="svg5"><inkscape:grid
       type="xygrid"
       id="grid5182" /></sodipodi:namedview><defs
     id="defs2" /><g
     inkscape:label="Layer 1"
     inkscape:groupmode="layer"
     id="layer1"><g
       id="g5330"
       style="display:none"><path
         style="fill:none;stroke:#000000;stroke-width:4;stroke-dasharray:16, 4;stroke-dashoffset:0;stroke-opacity:1"
         d="m 314.05549,169.99759 v 97.58263 l -97.11942,47.09289"
         id="path1266"
         sodipodi:nodetypes="ccc" /><path
         style="fill:none;stroke:#000000;stroke-width:4;stroke-dasharray:16, 4;stroke-dashoffset:0;stroke-opacity:1"
         d="m 217.70808,266.345 96.34741,1.23522"
         id="path3698"
         sodipodi:nodetypes="cc" /></g><path
       style="fill:#ffdd55;fill-opacity:1;stroke:none;stroke-width:1.31015;stroke-dasharray:none;stroke-dashoffset:0;stroke-opacity:1"
       d=""
       id="path6287" /><g
       aria-label="Easyunfold"
       id="text12029"
       style="font-size:40px;font-family:'Comic Sans MS';-inkscape-font-specification:'Comic Sans MS';fill:#7b55ca;stroke-width:3"><g
         id="g24918"
         transform="matrix(1.730283,0,0,1.730283,-201.23961,-161.83933)"><rect
           style="fill:#ffffff;stroke:#000000;stroke-width:5;stroke-dasharray:none;stroke-opacity:1"
           id="rect1015"
           width="145.13873"
           height="144.5211"
           x="167.37274"
           y="121.05186" /><path
           style="fill:none;fill-opacity:1;stroke:#000000;stroke-width:3;stroke-dasharray:none;stroke-dashoffset:0;stroke-opacity:1"
           d="m 168.14869,205.00101 c 0,0 27.46864,-16.90195 40.92601,-17.62277 35.68051,0.18195 35.55523,-9.54805 65.51996,-8.11481 22.36406,1.22248 37.98311,16.67551 37.98311,16.67551"
           id="path5211-5"
           sodipodi:nodetypes="cccc" /><rect
           style="fill:#ffffff;stroke:#000000;stroke-width:5.29256;stroke-dasharray:none;stroke-opacity:1"
           id="rect1015-7-5"
           width="107.26023"
           height="144.25555"
           x="244.62251"
           y="280.41495"
           transform="matrix(0.8925004,-0.45104661,0,1,0,0)"
           ry="0" /><g
           id="g2556"
           style="fill:none;fill-opacity:1;stroke:#000000;stroke-width:3;stroke-dasharray:none;stroke-opacity:1"><path
             style="fill:none;fill-opacity:1;stroke:#000000;stroke-width:3;stroke-dasharray:none;stroke-dashoffset:0;stroke-opacity:1"
             d="m 305.04706,126.42967 -19.87064,44.10845"
             id="path1510" /><path
             style="fill:none;fill-opacity:1;stroke:#000000;stroke-width:3;stroke-dasharray:none;stroke-dashoffset:0;stroke-opacity:1"
             d="M 312.79879,121.84414 290.5262,170.53812"
             id="path1510-4"
             sodipodi:nodetypes="cc" /><path
             style="fill:none;fill-opacity:1;stroke:#000000;stroke-width:3;stroke-dasharray:none;stroke-dashoffset:0;stroke-opacity:1"
             d="m 313.45387,131.67028 -17.03198,38.86784"
             id="path1510-4-0"
             sodipodi:nodetypes="cc" /><path
             style="fill:none;fill-opacity:1;stroke:#000000;stroke-width:3;stroke-dasharray:none;stroke-dashoffset:0;stroke-opacity:1"
             d="m 314.10895,142.36985 -13.53824,30.78857"
             id="path2523"
             sodipodi:nodetypes="cc" /><path
             style="fill:none;fill-opacity:1;stroke:#000000;stroke-width:3;stroke-dasharray:none;stroke-dashoffset:0;stroke-opacity:1"
             d="m 313.89059,155.68973 -6.98748,16.3769"
             id="path2525"
             sodipodi:nodetypes="cc" /><path
             style="fill:none;fill-opacity:1;stroke:#000000;stroke-width:3;stroke-dasharray:none;stroke-dashoffset:0;stroke-opacity:1"
             d="M 296.20354,131.23356 279.17156,170.1014"
             id="path2527"
             sodipodi:nodetypes="cc" /><path
             style="fill:none;fill-opacity:1;stroke:#000000;stroke-width:3;stroke-dasharray:none;stroke-dashoffset:0;stroke-opacity:1"
             d="m 287.03248,135.16402 -15.50347,36.24754"
             id="path2529"
             sodipodi:nodetypes="cc" /><path
             style="fill:none;fill-opacity:1;stroke:#000000;stroke-width:3;stroke-dasharray:none;stroke-dashoffset:0;stroke-opacity:1"
             d="M 276.76963,140.84135 262.79467,174.9053"
             id="path2531"
             sodipodi:nodetypes="cc" /><path
             style="fill:none;fill-opacity:1;stroke:#000000;stroke-width:3;stroke-dasharray:none;stroke-dashoffset:0;stroke-opacity:1"
             d="m 268.90871,144.11673 -11.79137,27.29483"
             id="path2533"
             sodipodi:nodetypes="cc" /><path
             style="fill:none;fill-opacity:1;stroke:#000000;stroke-width:3;stroke-dasharray:none;stroke-dashoffset:0;stroke-opacity:1"
             d="m 260.61108,147.82883 -9.82614,23.36437"
             id="path2535"
             sodipodi:nodetypes="cc" /><path
             style="fill:none;fill-opacity:1;stroke:#000000;stroke-width:3;stroke-dasharray:none;stroke-dashoffset:0;stroke-opacity:1"
             d="m 251.44002,152.85108 -7.20584,17.46869"
             id="path2537"
             sodipodi:nodetypes="cc" /><path
             style="fill:none;fill-opacity:1;stroke:#000000;stroke-width:3;stroke-dasharray:none;stroke-dashoffset:0;stroke-opacity:1"
             d="m 241.83224,158.96512 -5.67732,13.7566"
             id="path2539"
             sodipodi:nodetypes="cc" /><path
             style="fill:none;fill-opacity:1;stroke:#000000;stroke-width:3;stroke-dasharray:none;stroke-dashoffset:0;stroke-opacity:1"
             d="m 232.0061,162.67722 -3.49374,7.64255"
             id="path2541"
             sodipodi:nodetypes="cc" /></g><rect
           style="display:inline;fill:#ffffff;stroke:#000000;stroke-width:5;stroke-dasharray:none;stroke-opacity:1"
           id="rect1015-7"
           width="145.13873"
           height="144.5211"
           x="217.09045"
           y="170.4608" /><path
           style="fill:none;fill-opacity:1;stroke:#000000;stroke-width:3;stroke-dasharray:none;stroke-dashoffset:0;stroke-opacity:1"
           d="m 217.39928,216.78166 c 0,0 20.51126,22.64604 33.96863,21.92522 11.76686,-0.63027 15.72083,-21.53349 27.48372,-22.23402 14.59503,-0.8692 28.81496,41.8303 45.39445,41.07117 20.51123,-0.93916 35.51267,-35.51267 35.51267,-35.51267 m -82.45115,0"
           id="path5211"
           sodipodi:nodetypes="csssc" /><path
           style="fill:#7b55ca;fill-opacity:1;stroke:#7b55ca;stroke-width:1.85283;stroke-dasharray:none;stroke-dashoffset:0;stroke-opacity:1"
           d="m 318.61703,253.90791 c -4.14954,-2.43248 -8.41321,-7.229 -16.9464,-19.06425 -7.92334,-10.98941 -14.64602,-18.12862 -18.16431,-19.28976 -1.27747,-0.4216 -3.76514,-0.64693 -5.52816,-0.50072 -4.69954,0.38972 -7.84464,2.87619 -14.43835,11.41478 -3.09964,4.01391 -6.64462,7.97606 -7.87773,8.80477 -5.98735,4.0238 -16.26976,-0.52369 -30.61491,-13.53973 l -4.86864,-4.41755 v -21.8833 -21.8833 h 69.4813 69.4813 v 23.77805 c 0,13.25158 0.13485,24.15314 -0.16759,24.15314 -0.29847,0 -1.2657,0.46487 -1.69094,1.49149 -1.52565,3.68326 -7.47274,13.17332 -11.43551,18.24823 -6.79031,8.69597 -13.97834,13.61101 -20.82716,14.24123 -2.79659,0.25733 -3.68018,0.043 -6.4029,-1.55308 z"
           id="path5502"
           sodipodi:nodetypes="ssssssscccccssssss" /><path
           style="fill:#57c5b6;fill-opacity:1;stroke:#57c5b7;stroke-width:1.85283;stroke-dasharray:none;stroke-dashoffset:0;stroke-opacity:1"
           d="m 220.17853,267.06698 v -44.82687 l 4.47768,4.10998 c 5.63826,5.17524 14.11787,10.90461 18.64722,12.59925 4.49156,1.68051 10.06379,1.73009 13.18438,0.11731 2.79823,-1.44618 6.15935,-4.93622 11.11702,-11.54342 4.41526,-5.88434 6.75937,-7.9972 9.80563,-8.83832 5.01256,-1.38403 9.54688,2.57452 21.21462,18.52077 12.16497,16.6258 17.29649,21.28801 24.20225,21.98881 4.02495,0.40845 9.73462,-1.36763 14.4425,-4.49254 6.33455,-4.20463 14.73027,-14.20226 20.09152,-23.925 l 2.1325,-3.37463 -0.36389,42.33954 0.0112,42.15199 h -69.4813 -69.4813 z"
           id="path5577"
           sodipodi:nodetypes="ccssssssssscccccc" /><path
           style="fill:#7149c6;fill-opacity:0.733333;stroke:#7149c6;stroke-width:0.327538;stroke-dasharray:none;stroke-dashoffset:0;stroke-opacity:1"
           d="m 308.0899,159.94526 3.50792,-7.97946 0.0292,2.49073 0.0292,2.49074 -2.33129,5.45798 -2.3313,5.45798 -1.20586,0.0307 -1.20587,0.0308 z"
           id="path6291" /><path
           style="fill:#000022;fill-opacity:0.733333;stroke:none;stroke-width:0.327538;stroke-dasharray:none;stroke-dashoffset:0;stroke-opacity:1"
           d="m 310.45144,167.81832 c 0,-0.108 1.07369,-2.64828 1.15275,-2.72734 0.0265,-0.0265 0.0482,0.59867 0.0482,1.38931 v 1.43753 h -0.60049 c -0.33026,0 -0.60048,-0.0448 -0.60048,-0.0995 z"
           id="path6293" /><path
           style="fill:#7149c6;fill-opacity:0.733333;stroke:#7149c6;stroke-width:0.327538;stroke-dasharray:none;stroke-dashoffset:0;stroke-opacity:1"
           d="m 299.34314,167.78579 c 0.0301,-0.0775 2.79975,-6.40509 6.15472,-14.06129 l 6.09996,-13.92036 0.0295,2.12954 0.0295,2.12955 -5.23346,11.9 -5.23347,11.9 -0.95077,0.0317 c -0.74169,0.0248 -0.93873,7.6e-4 -0.89601,-0.10918 z"
           id="path6295" /><path
           style="fill:#7149c6;fill-opacity:0.733333;stroke:#7149c6;stroke-width:0.327538;stroke-dasharray:none;stroke-dashoffset:0;stroke-opacity:1"
           d="m 298.95197,155.88079 c 3.0283,-6.62036 7.11247,-15.54944 9.07593,-19.84241 l 3.56992,-7.80539 0.0299,1.82114 0.0299,1.82114 -7.89082,18.01934 -7.89081,18.01934 -1.21502,0.002 -1.21503,0.002 z"
           id="path6297" /><path
           style="fill:#7149c6;fill-opacity:0.733333;stroke:#7149c6;stroke-width:0.327538;stroke-dasharray:none;stroke-dashoffset:0;stroke-opacity:1"
           d="m 288.33574,167.34462 c 0.30725,-0.69321 17.11791,-38.0001 17.32192,-38.44149 0.11161,-0.24148 0.45778,-0.46806 1.55548,-1.01812 0.77655,-0.38913 1.3862,-0.6424 1.35477,-0.56283 -0.0314,0.0796 -4.22091,9.24616 -9.30995,20.37016 l -9.25281,20.22548 h -0.96173 -0.96173 z"
           id="path6299" /><path
           style="fill:#7149c6;fill-opacity:0.733333;stroke:#7149c6;stroke-width:0.327538;stroke-dasharray:none;stroke-dashoffset:0;stroke-opacity:1"
           d="m 281.94869,167.67216 c 0.0532,-0.13511 3.486,-7.98374 7.62832,-17.4414 l 7.5315,-17.19574 2.05652,-1.05752 c 1.13108,-0.58164 2.07,-1.04404 2.08647,-1.02756 0.0165,0.0165 -3.71394,8.34099 -8.28983,18.49892 l -8.31981,18.46896 h -1.395 -1.395 z"
           id="path6301" /><path
           style="fill:#7149c6;fill-opacity:0.733333;stroke:#7149c6;stroke-width:0.327538;stroke-dasharray:none;stroke-dashoffset:0;stroke-opacity:1"
           d="m 274.74986,167.89052 c 4e-5,-0.015 2.8883,-6.78276 6.41835,-15.03945 l 6.41829,-15.01216 2.49031,-1.2905 c 1.36967,-0.70978 2.51632,-1.2645 2.5481,-1.23272 0.0318,0.0318 -3.15082,7.38026 -7.07246,16.32996 l -7.13026,16.27217 h -1.8362 c -1.00991,0 -1.83617,-0.0123 -1.83613,-0.0273 z"
           id="path6303" /><path
           style="fill:#7149c6;fill-opacity:0.733333;stroke:#7149c6;stroke-width:0.327538;stroke-dasharray:none;stroke-dashoffset:0;stroke-opacity:1"
           d="m 268.9546,164.01465 c 0.88145,-2.14673 3.19551,-7.78677 5.14237,-12.53341 l 3.53975,-8.63026 2.71462,-1.39587 c 1.49304,-0.76773 2.74163,-1.36887 2.77464,-1.33586 0.033,0.033 -2.60868,6.30119 -5.87044,13.92929 l -5.93045,13.86928 h -1.98656 -1.98655 z"
           id="path6307" /><path
           style="fill:#7149c6;fill-opacity:0.733333;stroke:#7149c6;stroke-width:0.327538;stroke-dasharray:none;stroke-dashoffset:0;stroke-opacity:1"
           d="m 260.39813,167.77931 c 0.0303,-0.0791 2.05835,-4.78023 4.50669,-10.44702 l 4.45153,-10.30326 1.98706,-1.02884 c 1.09288,-0.56585 1.98502,-0.98775 1.98253,-0.93755 -0.002,0.0502 -2.1031,5.20088 -4.66803,11.44594 l -4.6635,11.35465 -1.82572,0.0299 c -1.47422,0.0242 -1.81511,0.002 -1.77056,-0.11384 z"
           id="path6309" /><path
           style="fill:#7149c6;fill-opacity:0.733333;stroke:#7149c6;stroke-width:0.327538;stroke-dasharray:none;stroke-dashoffset:0;stroke-opacity:1"
           d="m 253.89654,167.87502 c 0,-0.0235 1.56594,-3.76638 3.47987,-8.31743 l 3.47988,-8.27463 2.03368,-1.01797 c 1.11853,-0.55988 2.03368,-0.98375 2.03368,-0.94192 0,0.0418 -1.79992,4.24276 -3.99983,9.3354 l -3.99984,9.25935 h -1.51372 c -0.83255,0 -1.51372,-0.0193 -1.51372,-0.0428 z"
           id="path6311" /><path
           style="fill:#7149c6;fill-opacity:0.733333;stroke:#7149c6;stroke-width:0.327538;stroke-dasharray:none;stroke-dashoffset:0;stroke-opacity:1"
           d="m 247.67286,166.08906 c 0.41259,-1.00581 1.52893,-3.72028 2.48076,-6.03216 l 1.7306,-4.2034 2.21781,-1.12661 c 1.21979,-0.61964 2.24436,-1.10006 2.27682,-1.0676 0.0325,0.0325 -1.28429,3.25391 -2.92611,7.15877 l -2.98511,7.09976 h -1.77247 -1.77246 z"
           id="path6313" /><path
           style="fill:#7149c6;fill-opacity:0.733333;stroke:#7149c6;stroke-width:0.327538;stroke-dasharray:none;stroke-dashoffset:0;stroke-opacity:1"
           d="m 240.42449,166.47375 c 0.33156,-0.79705 1.02959,-2.49746 1.55118,-3.77868 l 0.94835,-2.32949 2.27727,-1.14335 c 1.25249,-0.62885 2.29583,-1.12479 2.31852,-1.1021 0.0227,0.0227 -0.85993,2.22416 -1.96136,4.89217 l -2.0026,4.85093 -1.8671,0.0299 -1.8671,0.0299 z"
           id="path6315" /><path
           style="fill:#7149c6;fill-opacity:0.733333;stroke:#7149c6;stroke-width:0.327538;stroke-dasharray:none;stroke-dashoffset:0;stroke-opacity:1"
           d="m 231.40486,167.83794 c -4e-4,-0.0461 0.20747,-0.54387 0.46195,-1.10606 l 0.46269,-1.02217 3.14985,-1.57565 c 2.2191,-1.11006 3.1311,-1.51777 3.08638,-1.37978 -0.0349,0.10773 -0.52088,1.30132 -1.07994,2.65241 l -1.01646,2.45654 -2.53187,0.0293 c -1.39252,0.0161 -2.53219,-0.008 -2.5326,-0.0546 z"
           id="path6317" /><path
           d="m 182.77505,332.96536 q -0.27343,0 -0.60546,-0.0976 -3.30079,-0.9375 -6.36719,-0.9375 -1.60156,0 -3.4961,0.29297 -1.89453,0.29296 -4.08203,0.89843 0.17578,1.26953 0.17578,2.03125 0,2.71485 -0.33203,7.46094 l 8.55469,-0.82031 q 3.76953,-0.39063 4.62891,-0.39063 0.85937,0 1.44531,0.54688 0.58594,0.54687 0.58594,1.46484 0,1.77735 -1.79688,1.99219 l -4.64844,0.41016 -9.02343,0.82031 q -0.0781,1.38672 -0.13672,2.63672 -0.0391,1.23047 -0.0391,2.30468 0,4.31641 0.625,5.07813 0.46875,0.54687 3.0664,0.54687 1.21094,0 3.63281,-0.0586 2.44141,-0.0781 3.67188,-0.0781 0.39062,0 1.15234,-0.11719 0.76172,-0.13672 1.13282,-0.13672 2.07031,0 2.07031,2.03125 0,1.64062 -1.66016,1.97266 -1.83594,0.37109 -7.94922,0.37109 -6.05468,0 -7.77343,-1.60156 -1.875,-1.73828 -1.875,-8.00782 0,-1.25 0.0586,-2.73437 0.0586,-1.48438 0.15625,-3.20313 -0.21484,-0.44921 -0.21484,-0.95703 0,-0.66406 0.37109,-1.1914 0.39062,-5.64453 0.39062,-8.33985 0,-0.72265 -0.19531,-2.10937 -0.19531,-1.40625 -0.19531,-2.12891 0,-2.32422 1.95312,-2.32422 0.82032,0 1.40625,0.56641 2.34375,-0.625 4.41407,-0.9375 2.08984,-0.3125 3.92578,-0.3125 4.74609,0 7.57812,1.13281 1.3086,0.52735 1.3086,1.875 0,0.78125 -0.50782,1.38672 -0.5664,0.66406 -1.40625,0.66406 z"
           id="path12409"
           style="fill:#19a7ce;fill-opacity:1" /><path
           d="m 203.94693,360.54349 q -0.37109,0 -1.34766,-0.85938 -0.8789,-0.80078 -1.30859,-1.42578 -1.875,1.01563 -3.30078,1.52344 -1.42578,0.52734 -2.38281,0.52734 -4.57032,0 -6.66016,-2.57812 -1.97266,-2.42188 -1.97266,-7.42188 0,-4.72656 3.24219,-8.08593 3.26172,-3.35938 7.77344,-3.35938 1.69922,0 3.80859,0.87891 2.65625,1.09375 2.65625,2.63672 0,0.52734 -0.39062,0.9375 -0.19532,0.74218 -0.3125,2.4414 -0.0977,1.69922 -0.11719,4.35547 -0.0195,2.42188 0.33203,3.82813 0.19531,0.85937 1.23047,3.4375 0.13672,0.35156 0.44922,1.03515 l 0.11719,0.33203 q 0,0.78125 -0.54688,1.28907 -0.54687,0.50781 -1.26953,0.50781 z m -4.0625,-13.57422 q 0,-0.83984 0.0977,-1.81641 0.11718,-0.99609 0.33203,-2.10937 -0.72266,-0.3711 -1.25,-0.54688 -0.50782,-0.17578 -0.82032,-0.17578 -3.02734,0 -5.23437,2.48047 -2.1875,2.46094 -2.1875,5.68359 0,3.20313 1.13281,4.80469 1.13281,1.60156 3.39844,1.60156 1.875,0 3.18359,-0.68359 0.70313,-0.37109 1.97266,-1.48437 -0.625,-5.17579 -0.625,-7.75391 z"
           id="path12411"
           style="fill:#19a7ce;fill-opacity:1" /><path
           d="m 222.34537,344.21536 q -1.07422,0 -1.50391,-0.72265 -0.29297,-0.50782 -0.50781,-2.10938 -1.46485,0.3711 -4.51172,1.36719 -3.14453,1.25 -3.16406,3.08594 0.58593,0.21484 1.15234,0.3125 4.49219,0.80078 6.67969,2.20703 3.18359,2.05078 3.18359,5.9375 0,3.18359 -2.7539,4.80469 -2.28516,1.32812 -5.78125,1.32812 -2.5586,0 -4.88282,-0.85937 -3.00781,-1.09375 -3.00781,-3.04688 0,-0.78125 0.60547,-1.36719 0.625,-0.58593 1.40625,-0.58593 0.60547,0 1.5625,0.9375 0.46875,0.44921 2.10937,0.74218 1.3086,0.23438 2.20704,0.23438 1.64062,0 2.89062,-0.39063 1.81641,-0.5664 1.81641,-1.79687 0,-2.65625 -3.71094,-3.59375 l -2.03125,-0.44922 q -2.59766,-0.56641 -3.69141,-1.32813 -1.58203,-1.09375 -1.58203,-3.30078 0,-4.08203 3.84766,-5.82031 1.17187,-0.52734 3.75,-1.25 2.57812,-0.74219 3.6914,-1.25 0.80079,-0.35156 1.73829,-0.35156 0.83984,0 1.36718,0.54687 0.54688,0.54688 0.54688,1.42578 0,0.56641 0.23437,1.66016 0.25391,1.09375 0.25391,1.66016 0,0.8789 -0.54688,1.42578 -0.52734,0.54687 -1.36718,0.54687 z"
           id="path12413"
           style="fill:#19a7ce;fill-opacity:1" /><path
           d="m 245.66568,341.83255 -6.75781,14.60938 q -2.5,5.33203 -3.82813,8.92578 l -1.28906,3.78906 q -0.50781,1.40625 -1.75781,1.40625 -0.82032,0 -1.42578,-0.54688 -0.58594,-0.52734 -0.58594,-1.32812 0,-1.95313 4.21875,-11.30859 l -6.99219,-13.45704 -0.87891,-1.42578 q -0.52734,-0.89843 -0.52734,-1.5039 0,-0.80078 0.60547,-1.40625 0.625,-0.60547 1.38672,-0.60547 0.89844,0 1.38672,0.68359 3.32031,4.60938 7.1289,13.125 l 2.89063,-6.73828 q 1.5625,-3.49609 3.00781,-6.01562 0.625,-1.09375 1.64063,-1.09375 0.80078,0 1.40625,0.5664 0.625,0.56641 0.625,1.34766 0,0.42969 -0.25391,0.97656 z"
           id="path12415"
           style="fill:#19a7ce;fill-opacity:1" /><path
           d="m 265.39224,347.84818 q 0,1.40625 0.0195,4.21875 0.0195,2.8125 0.0195,4.21875 0,0.42968 0.0586,1.30859 0.0781,0.87891 0.0781,1.30859 0,0.83985 -0.5664,1.36719 -0.56641,0.54688 -1.38672,0.54688 -1.50391,0 -1.91406,-1.85547 -2.44141,1.26953 -5.625,1.26953 -2.5586,0 -4.23829,-1.13281 -1.85546,-1.25 -2.20703,-3.65235 -0.76172,-5.17578 -0.76172,-9.21875 0,-2.67578 0.58594,-6.09375 0.27344,-1.69922 1.85547,-1.69922 0.83984,0 1.40625,0.54688 0.56641,0.52734 0.56641,1.36719 0,0.89843 -0.29297,2.87109 -0.27344,1.97266 -0.27344,3.00781 0,3.26172 0.21484,5.58594 0.21485,2.32422 0.64454,3.73047 0.64453,0.35156 1.26953,0.54687 0.625,0.17578 1.23047,0.17578 2.61718,0 5.52734,-0.83984 l -0.0195,-3.96484 -0.0391,-3.78907 q 0,-4.21875 0.37109,-7.32421 0.21484,-1.79688 1.89453,-1.79688 0.83984,0 1.40625,0.54688 0.56641,0.54687 0.52734,1.36718 z"
           id="path12417"
           style="fill:#146c94;fill-opacity:1;stroke:none;stroke-opacity:1" /><path
           d="m 285.23599,360.64114 q -1.67969,0 -1.89453,-1.83593 l -0.54687,-4.27735 q -0.27344,-2.28515 -0.27344,-4.27734 0,-0.54688 0.0586,-1.85547 0.0781,-1.30859 0.0781,-1.85547 0,-4.21875 -1.5625,-4.21875 -2.1875,0 -4.17969,2.59766 -1.79688,2.36328 -2.8125,5.97656 -0.0391,0.76172 -0.17578,1.91406 -0.11719,0.97657 -0.11719,1.89453 0,0.58594 0.11719,1.75782 0.11719,1.17187 0.11719,1.75781 0,0.87891 -0.54688,1.42578 -0.52734,0.54688 -1.36719,0.54688 -0.85937,0 -1.38672,-0.54688 -0.52734,-0.54687 -0.52734,-1.42578 0,-0.58594 -0.13672,-1.75781 -0.11719,-1.17188 -0.11719,-1.75782 0,-2.01171 0.27344,-5.5664 0.29297,-3.57422 0.29297,-5.58594 0,-0.625 -0.0781,-1.85547 -0.0586,-1.23047 -0.0586,-1.85547 0,-0.83984 0.54688,-1.36718 0.5664,-0.54688 1.38672,-0.54688 1.79687,0 1.97265,2.53906 l 0.0586,2.28516 q 3.28125,-4.375 6.73828,-4.375 3.125,0 4.35547,2.75391 0.83984,1.83593 0.91796,5.42968 v 1.97266 l -0.0195,1.81641 q 0,1.62109 0.41016,4.19921 0.42969,2.5586 0.42969,4.16016 0,0.85938 -0.56641,1.38672 -0.54687,0.54687 -1.38672,0.54687 z"
           id="path12419"
           style="fill:#146c94;fill-opacity:1;stroke:none;stroke-opacity:1" /><path
           d="m 304.31802,331.79349 q -4.72656,0 -5.29297,6.5625 l -0.0586,1.21094 q 3.32031,-0.23438 4.29688,-0.23438 3.10546,0 3.10546,1.95313 0,1.42578 -1.52343,1.69921 -0.66407,0.11719 -1.5625,0.0977 -0.87891,-0.0391 -4.49219,0.25391 l -0.15625,4.45312 q 0,1.21094 0.0781,3.63281 0.0781,2.42188 0.0781,3.61329 0,3.71093 -0.42969,5.78125 -0.33203,1.5625 -1.8164,1.5625 -0.80079,0 -1.36719,-0.52735 -0.56641,-0.50781 -0.56641,-1.28906 0,-0.15625 0.0391,-0.39063 0.41016,-2.53906 0.41016,-5.52734 l -0.0586,-5.33203 V 343.649 q -2.44141,0.19531 -3.08594,0.19531 -1.97266,0 -1.97266,-1.89453 0,-1.9336 3.41797,-2.03125 l 1.875,-0.0586 q 0.0586,-1.09375 0.29297,-2.96875 0.50781,-4.33593 2.1875,-6.38671 2.03125,-2.48047 6.34766,-2.48047 2.79297,0 2.79297,1.89453 0,1.875 -2.53907,1.875 z"
           id="path12421"
           style="fill:#146c94;fill-opacity:1;stroke:none;stroke-opacity:1" /><path
           d="m 318.84927,360.40677 q -3.28125,0 -5.64453,-2.42188 -2.63672,-2.69531 -2.77344,-7.24609 -0.11718,-4.41406 2.22657,-7.77344 2.73437,-3.96484 7.61718,-3.96484 3.90625,0 5.91797,3.57422 1.60157,2.89062 1.54297,6.95312 -0.0586,4.33594 -2.26562,7.40235 -2.5,3.47656 -6.6211,3.47656 z m 1.17188,-17.44141 q -2.8711,-0.0195 -4.47266,2.73438 -1.26953,2.20703 -1.26953,5.03906 0,2.83203 1.54297,4.41406 1.28906,1.3086 3.02734,1.3086 2.03125,0 3.4961,-1.48438 1.66015,-1.64062 1.75781,-4.43359 0.27344,-7.5586 -4.08203,-7.57813 z"
           id="path12423"
           style="fill:#146c94;fill-opacity:1;stroke:none;stroke-opacity:1" /><path
           d="m 337.52115,343.90286 -0.29297,9.70703 q 0,1.54297 -0.15625,4.53125 -0.19531,1.95313 -1.91406,1.95313 -1.91407,0 -1.91407,-1.99219 0,-2.36328 0.21485,-7.08984 0.21484,-4.7461 0.21484,-7.10938 0,-3.08593 0.0977,-7.05078 0.0977,-3.98437 0.0977,-7.07031 0,-1.95313 1.91407,-1.95313 1.93359,0 1.93359,1.95313 0,3.08594 -0.0977,7.07031 -0.0977,3.96485 -0.0977,7.05078 z"
           id="path12425"
           style="fill:#146c94;fill-opacity:1;stroke:none;stroke-opacity:1" /><path
           d="m 361.50552,342.00833 q -0.23437,2.8711 -0.23437,5.74219 0,6.50391 0.60547,9.82422 0.0391,0.27344 0.0391,0.44922 0,0.78125 -0.54688,1.28906 -0.54687,0.50781 -1.26953,0.50781 -1.21093,0 -1.77734,-1.75781 -1.40625,1.03516 -2.92969,1.5625 -1.5039,0.52734 -3.14453,0.52734 -4.04297,0 -6.69922,-2.69531 -2.73437,-2.75391 -2.73437,-7.07031 0,-5.21485 2.7539,-8.35938 2.77344,-3.14453 7.1875,-3.14453 2.26563,0 3.4961,0.70313 l 1.83593,1.34765 q 0.27344,-8.22265 0.64454,-11.07422 0.2539,-1.73828 1.77734,-1.73828 1.77734,0 1.77734,1.89453 0,2.71485 -0.78125,11.99219 z m -8.67187,0.50781 q -3.28125,0 -4.92188,1.95313 -1.64062,1.93359 -1.64062,5.83984 0,2.51953 1.77734,4.33594 1.79688,1.81641 4.19922,1.81641 1.64063,0 2.77344,-0.60547 0.66406,-0.35156 2.16797,-1.6211 0.29297,-0.2539 0.5664,-0.60546 l -0.0586,-3.37891 0.0195,-2.26563 0.0391,-2.30468 q -0.74218,-1.58203 -1.97265,-2.36328 -1.23047,-0.80079 -2.94922,-0.80079 z"
           id="path12427"
           style="fill:#146c94;fill-opacity:1;stroke:none;stroke-opacity:1" /><path
           style="fill:#7b55ca;fill-opacity:1;stroke:#7b55ca;stroke-width:2.25055;stroke-dasharray:none;stroke-dashoffset:0;stroke-opacity:1"
           d="M 93.397802,119.65421 V 52.51282 l 115.340658,0.01584 115.34066,0.01584 -10.87765,5.653984 C 307.21875,61.308178 273.5851,78.348962 238.46,96.066895 195.01127,117.98346 173.84821,128.28132 172.25633,128.28132 h -2.33985 v 15.27597 15.27597 l -7.31428,0.51502 c -15.00596,1.0566 -32.77707,7.7518 -59.81134,22.53369 -4.94253,2.7025 -10.072527,6.30609 -9.18974,4.91363 0.05988,-0.0944 -0.203318,-30.21362 -0.203318,-67.14139 z"
           id="path25178"
           transform="matrix(0.57794014,0,0,0.57794014,116.30445,93.533445)"
           sodipodi:nodetypes="scccssscccssss" /><path
           style="fill:#57c5b6;fill-opacity:1;stroke:#57c5b6;stroke-width:2.25055;stroke-dasharray:none;stroke-dashoffset:0;stroke-opacity:1"
           d="m 93.397802,243.8109 v -49.51071 l 3.56337,-2.26051 c 1.959854,-1.24328 11.496558,-6.23146 21.192678,-11.08484 23.18881,-11.60714 36.06955,-15.89197 47.82417,-15.90888 l 3.93846,-0.006 v 64.14066 64.14066 H 131.65714 93.397802 Z"
           id="path25472"
           transform="matrix(0.57794014,0,0,0.57794014,116.30445,93.533445)" /></g></g></g></svg>
